<svg width="168" height="24" viewBox="0 0 168 24" fill="none" xmlns="http://www.w3.org/2000/svg">
<path d="M7.78107 18.4304L10.6447 0.975874H13.7129L10.8493 18.4304H7.78107ZM-0.000175953 14.2713L0.51971 11.2031H14.3606L13.8407 14.2713H-0.000175953ZM1.64471 18.4304L4.50835 0.975874H7.57653L4.71289 18.4304H1.64471ZM0.996983 8.20315L1.51687 5.13496H15.3578L14.8379 8.20315H0.996983ZM22.954 18.4304L17.6628 0.248601H22.519L25.2622 12.1627H25.4131L28.547 0.248601H32.5065L35.6404 12.1893H35.7913L38.5435 0.248601H43.3908L38.1084 18.4304H33.8737L30.5978 7.40414H30.4557L27.1798 18.4304H22.954ZM49.2867 18.6612C48.4167 18.6612 47.6443 18.5162 46.9696 18.2262C46.3008 17.9303 45.7711 17.4864 45.3805 16.8946C44.9958 16.2968 44.8034 15.5481 44.8034 14.6485C44.8034 13.8909 44.9366 13.2517 45.2029 12.7308C45.4692 12.21 45.8362 11.7868 46.3038 11.4613C46.7713 11.1358 47.3099 10.8902 47.9195 10.7245C48.5291 10.5528 49.1802 10.4374 49.8727 10.3782C50.648 10.3072 51.2724 10.2332 51.7459 10.1563C52.2194 10.0734 52.5626 9.958 52.7757 9.81004C52.9947 9.65615 53.1042 9.44013 53.1042 9.16195V9.11756C53.1042 8.66184 52.9473 8.30968 52.6337 8.0611C52.32 7.81252 51.8968 7.68823 51.3641 7.68823C50.79 7.68823 50.3284 7.81252 49.9792 8.0611C49.63 8.30968 49.408 8.65296 49.3133 9.09093L45.3094 8.94889C45.4278 8.12029 45.7326 7.38047 46.2239 6.72943C46.721 6.07247 47.4017 5.55755 48.2658 5.18468C49.1358 4.80589 50.1804 4.6165 51.3996 4.6165C52.2697 4.6165 53.0716 4.72007 53.8055 4.92722C54.5394 5.12845 55.1786 5.42438 55.7231 5.81501C56.2677 6.19971 56.6879 6.6732 56.9838 7.23546C57.2856 7.79773 57.4366 8.43989 57.4366 9.16195V18.4304H53.3528V16.5306H53.2462C53.0036 16.9922 52.6928 17.3828 52.3141 17.7024C51.9412 18.022 51.5003 18.2617 50.9913 18.4215C50.4882 18.5813 49.92 18.6612 49.2867 18.6612ZM50.6273 15.8203C51.0948 15.8203 51.5151 15.7256 51.8879 15.5362C52.2667 15.3468 52.5686 15.0864 52.7935 14.755C53.0184 14.4176 53.1308 14.027 53.1308 13.5831V12.287C53.0065 12.3521 52.8556 12.4112 52.678 12.4645C52.5064 12.5178 52.317 12.5681 52.1099 12.6154C51.9027 12.6628 51.6897 12.7042 51.4707 12.7397C51.2517 12.7752 51.0416 12.8078 50.8403 12.8374C50.432 12.9025 50.0828 13.0031 49.7928 13.1392C49.5087 13.2754 49.2897 13.4529 49.1358 13.6719C48.9878 13.885 48.9138 14.1395 48.9138 14.4354C48.9138 14.8852 49.0736 15.2285 49.3932 15.4652C49.7188 15.702 50.1301 15.8203 50.6273 15.8203ZM65.7562 14.8527L65.7739 9.67687H66.3776L70.2129 4.79406H75.1312L69.4316 11.7898H68.2864L65.7562 14.8527ZM61.841 18.4304V0.248601H66.1823V18.4304H61.841ZM70.3105 18.4304L66.7416 12.7664L69.6003 9.68575L75.3265 18.4304H70.3105ZM84.2476 18.6879C82.8212 18.6879 81.5901 18.4067 80.5544 17.8445C79.5246 17.2763 78.7315 16.4684 78.1751 15.4208C77.6247 14.3673 77.3495 13.1156 77.3495 11.6655C77.3495 10.2569 77.6277 9.02583 78.184 7.97232C78.7403 6.9129 79.5246 6.09022 80.5366 5.50428C81.5487 4.91243 82.7413 4.6165 84.1144 4.6165C85.085 4.6165 85.9728 4.76742 86.7777 5.06927C87.5827 5.37112 88.2781 5.81797 88.864 6.40982C89.45 7.00168 89.9057 7.73262 90.2312 8.60265C90.5567 9.46676 90.7195 10.4581 90.7195 11.5767V12.6598H78.8676V10.1385H86.6801C86.6742 9.67687 86.5647 9.26553 86.3516 8.9045C86.1385 8.54346 85.8456 8.26233 85.4727 8.0611C85.1058 7.85395 84.6826 7.75038 84.2032 7.75038C83.7179 7.75038 83.2828 7.85987 82.8981 8.07886C82.5134 8.29193 82.2086 8.58489 81.9837 8.95776C81.7588 9.32471 81.6404 9.74197 81.6286 10.2095V12.7752C81.6286 13.3316 81.7381 13.8199 81.9571 14.2401C82.1761 14.6544 82.4868 14.9769 82.8893 15.2078C83.2917 15.4386 83.7711 15.554 84.3275 15.554C84.7122 15.554 85.0614 15.5007 85.375 15.3942C85.6887 15.2877 85.958 15.1308 86.1829 14.9237C86.4078 14.7165 86.5765 14.462 86.689 14.1602L90.6751 14.2756C90.5094 15.1693 90.1454 15.9476 89.5831 16.6105C89.0268 17.2674 88.2959 17.7794 87.3903 18.1463C86.4848 18.5074 85.4372 18.6879 84.2476 18.6879ZM105.686 0.248601H110.072V11.9762C110.072 13.3316 109.749 14.5123 109.104 15.5185C108.459 16.5187 107.56 17.2941 106.405 17.8445C105.251 18.389 103.911 18.6612 102.384 18.6612C100.839 18.6612 99.4897 18.389 98.3355 17.8445C97.1814 17.2941 96.2848 16.5187 95.6456 15.5185C95.0064 14.5123 94.6867 13.3316 94.6867 11.9762V0.248601H99.0813V11.5945C99.0813 12.2218 99.2174 12.7812 99.4897 13.2724C99.7678 13.7636 100.155 14.1483 100.653 14.4265C101.15 14.7047 101.727 14.8438 102.384 14.8438C103.041 14.8438 103.615 14.7047 104.106 14.4265C104.603 14.1483 104.991 13.7636 105.269 13.2724C105.547 12.7812 105.686 12.2218 105.686 11.5945V0.248601ZM114.576 23.5441V4.79406H118.873V7.12893H119.006C119.184 6.71463 119.436 6.31513 119.761 5.93042C120.092 5.54571 120.513 5.23203 121.022 4.98937C121.537 4.74079 122.152 4.6165 122.868 4.6165C123.815 4.6165 124.7 4.86508 125.523 5.36224C126.351 5.8594 127.02 6.62585 127.529 7.6616C128.038 8.69735 128.293 10.0172 128.293 11.6211C128.293 13.1659 128.047 14.4591 127.556 15.5007C127.07 16.5424 126.414 17.3236 125.585 17.8445C124.762 18.3653 123.848 18.6257 122.842 18.6257C122.155 18.6257 121.56 18.5133 121.057 18.2884C120.554 18.0635 120.131 17.7675 119.788 17.4006C119.45 17.0336 119.19 16.6401 119.006 16.2198H118.918V23.5441H114.576ZM118.829 11.6122C118.829 12.3461 118.927 12.9853 119.122 13.5299C119.323 14.0744 119.61 14.4975 119.983 14.7994C120.362 15.0953 120.815 15.2433 121.341 15.2433C121.874 15.2433 122.327 15.0953 122.7 14.7994C123.072 14.4975 123.354 14.0744 123.543 13.5299C123.738 12.9853 123.836 12.3461 123.836 11.6122C123.836 10.8783 123.738 10.2421 123.543 9.7035C123.354 9.16491 123.072 8.74765 122.7 8.45173C122.333 8.1558 121.88 8.00783 121.341 8.00783C120.809 8.00783 120.356 8.15284 119.983 8.44285C119.61 8.73286 119.323 9.14716 119.122 9.68575C118.927 10.2243 118.829 10.8665 118.829 11.6122Z" fill="#074E9D"/>
<path d="M144.249 6.18788C144.149 5.81501 144.001 5.48653 143.806 5.20244C143.61 4.91243 143.371 4.66681 143.086 4.46558C142.802 4.26434 142.477 4.11342 142.11 4.01281C141.743 3.90627 141.34 3.853 140.902 3.853C140.021 3.853 139.257 4.06607 138.612 4.49221C137.973 4.91835 137.479 5.53979 137.129 6.35656C136.78 7.1674 136.606 8.15284 136.606 9.31288C136.606 10.4788 136.774 11.4732 137.112 12.2958C137.449 13.1185 137.937 13.7459 138.576 14.1779C139.216 14.61 139.991 14.826 140.902 14.826C141.707 14.826 142.388 14.6958 142.944 14.4354C143.507 14.1691 143.933 13.7932 144.223 13.3079C144.513 12.8226 144.658 12.2514 144.658 11.5945L145.475 11.6921H141.053V8.48724H148.893V10.8931C148.893 12.5207 148.546 13.9146 147.854 15.0746C147.167 16.2346 146.22 17.1254 145.013 17.7468C143.811 18.3683 142.429 18.679 140.867 18.679C139.133 18.679 137.609 18.3032 136.295 17.5515C134.981 16.7999 133.957 15.7286 133.223 14.3377C132.489 12.941 132.122 11.2838 132.122 9.36614C132.122 7.87467 132.344 6.55187 132.788 5.39775C133.232 4.23771 133.851 3.25523 134.644 2.45031C135.443 1.64538 136.366 1.03577 137.413 0.62147C138.467 0.207171 139.6 2.15173e-05 140.814 2.15173e-05C141.867 2.15173e-05 142.847 0.150945 143.752 0.452792C144.664 0.754639 145.469 1.18078 146.167 1.7312C146.871 2.28163 147.442 2.93563 147.88 3.6932C148.318 4.45078 148.591 5.28234 148.697 6.18788H144.249ZM153.233 18.4304V0.248601H160.814C162.176 0.248601 163.315 0.440954 164.232 0.825661C165.156 1.21037 165.848 1.74896 166.31 2.44143C166.777 3.1339 167.011 3.93586 167.011 4.84732C167.011 5.53979 166.866 6.15828 166.576 6.70279C166.286 7.24138 165.887 7.68823 165.378 8.04335C164.869 8.39846 164.28 8.64704 163.611 8.78908V8.96664C164.345 9.00215 165.022 9.20042 165.644 9.56146C166.271 9.92249 166.774 10.4256 167.153 11.0707C167.532 11.7099 167.721 12.4675 167.721 13.3434C167.721 14.32 167.473 15.193 166.976 15.9624C166.478 16.7259 165.759 17.3296 164.818 17.7735C163.877 18.2114 162.735 18.4304 161.391 18.4304H153.233ZM157.627 14.8882H160.344C161.297 14.8882 161.998 14.7076 162.448 14.3466C162.904 13.9856 163.131 13.4825 163.131 12.8374C163.131 12.3698 163.022 11.9674 162.803 11.63C162.584 11.2867 162.273 11.0233 161.871 10.8399C161.468 10.6505 160.986 10.5558 160.424 10.5558H157.627V14.8882ZM157.627 7.72374H160.06C160.539 7.72374 160.965 7.64384 161.338 7.48404C161.711 7.32424 162.001 7.09342 162.208 6.79157C162.421 6.48972 162.528 6.12573 162.528 5.69959C162.528 5.08998 162.312 4.61058 161.88 4.26139C161.448 3.91219 160.865 3.73759 160.131 3.73759H157.627V7.72374Z" fill="#9D0707"/>
</svg>
